<?xml version="1.0" encoding="utf-8"?>
<!-- Generator: Adobe Illustrator 16.0.0, SVG Export Plug-In . SVG Version: 6.00 Build 0)  -->
<!DOCTYPE svg PUBLIC "-//W3C//DTD SVG 1.1//EN" "http://www.w3.org/Graphics/SVG/1.1/DTD/svg11.dtd">
<svg version="1.1" id="Layer_1" xmlns="http://www.w3.org/2000/svg" xmlns:xlink="http://www.w3.org/1999/xlink" x="0px" y="0px"
	 width="197.871px" height="145.749px" viewBox="0 0 197.871 145.749" enable-background="new 0 0 197.871 145.749"
	 xml:space="preserve">
<g>
	<defs>
		<path id="SVGID_1_" d="M75.334,55.47c-0.878,1.188-1.949,2.271-3.214,3.252c-1.265,0.981-2.698,1.472-4.298,1.472
			c-2.065,0-3.614-0.878-4.646-2.634c-0.62,1.189-1.317,2.427-2.092,3.718c-0.773,1.291-1.575,2.453-2.4,3.484
			c-1.395,1.705-2.917,2.97-4.57,3.794c-0.93,0.414-1.703,0.621-2.322,0.621c-0.88,0-1.472-0.31-1.783-0.929
			c-0.309-0.619-0.463-1.316-0.463-2.091c-0.052-1.704,0.413-3.433,1.393-5.189c0.98-1.754,2.039-3.303,3.175-4.646
			c0.67-0.774,1.498-1.511,2.478-2.207c0.98-0.697,1.937-1.227,2.867-1.588c1.084-0.414,2.038-0.646,2.865-0.697
			c0.051-0.516,0.206-1.007,0.465-1.472c0.206-0.515,0.567-0.825,1.084-0.93c0.258-0.05,0.516-0.102,0.774-0.154
			c0.258-0.051,0.49-0.128,0.697-0.232c0.051-0.051,0.129-0.078,0.232-0.078s0.206,0.053,0.31,0.156
			c0.051,0.052,0.078,0.129,0.078,0.232c0,0.155-0.052,0.259-0.156,0.309c-0.309,0.207-0.594,1.111-0.852,2.71
			c-0.052,0.363-0.09,0.724-0.116,1.084c-0.026,0.363-0.039,0.697-0.039,1.008c0,1.446,0.271,2.632,0.813,3.562
			c0.543,0.93,1.484,1.394,2.828,1.394c1.342,0,2.58-0.438,3.717-1.316c1.135-0.877,2.064-1.833,2.788-2.865
			c0.051-0.156,0.154-0.232,0.309-0.232c0.104,0,0.156,0.077,0.156,0.232C75.413,55.341,75.386,55.419,75.334,55.47L75.334,55.47z
			 M62.324,54.657c-0.052-0.491-0.078-0.942-0.078-1.355v-0.697c-0.104-0.051-0.232-0.077-0.387-0.077
			c-1.291,0.051-2.569,0.762-3.833,2.129c-1.266,1.369-2.362,2.853-3.292,4.453c-0.671,1.136-1.277,2.363-1.818,3.679
			c-0.543,1.316-0.789,2.57-0.736,3.756c0,0.363,0.064,0.697,0.193,1.007c0.128,0.311,0.426,0.465,0.891,0.465
			c0.103,0,0.31-0.051,0.619-0.154c0.981-0.465,1.871-1.124,2.672-1.976c0.8-0.852,1.536-1.768,2.208-2.748
			c0.774-1.188,1.497-2.388,2.168-3.602c0.67-1.213,1.213-2.388,1.626-3.524C62.452,55.599,62.375,55.148,62.324,54.657
			L62.324,54.657z M89.353,57.949c-0.775,0.98-1.654,1.975-2.633,2.981c-0.981,1.007-2.002,1.976-3.06,2.904
			c-1.058,0.929-2.117,1.77-3.175,2.517c-1.058,0.749-2.079,1.304-3.058,1.666c-0.775,0.309-1.51,0.554-2.207,0.736
			c-0.697,0.18-1.355,0.27-1.976,0.27c-1.239,0-2.234-0.322-2.981-0.967c-0.75-0.645-1.123-1.561-1.123-2.75
			c0-0.825,0.232-1.832,0.697-3.021c0.979-2.426,2.361-4.594,4.143-6.505c1.781-1.909,3.833-3.355,6.157-4.337
			c0.619-0.257,1.109-0.387,1.471-0.387c1.24,0,2.143,0.697,2.71,2.092c0.104,0.309,0.156,0.491,0.156,0.541
			c0,0.259-0.13,0.492-0.388,0.697c-0.207,0.156-0.439,0.349-0.697,0.582c-0.258,0.232-0.49,0.478-0.697,0.736
			c-0.207,0.207-0.387,0.309-0.542,0.309s-0.232-0.102-0.232-0.309v-0.155c0.051-0.155,0.078-0.36,0.078-0.619
			c0-1.342-0.827-2.014-2.479-2.014c-0.981,0-1.95,0.503-2.905,1.51c-0.955,1.007-1.794,2.207-2.516,3.601
			c-0.981,1.859-1.549,3.718-1.705,5.576v0.853c0,2.168,0.955,3.252,2.865,3.252c0.516,0,1.162-0.128,1.937-0.387
			c0.98-0.36,2-0.877,3.058-1.549c1.059-0.67,2.104-1.458,3.136-2.362c1.033-0.903,2.026-1.858,2.982-2.865
			c0.955-1.006,1.82-2,2.595-2.982c0.155-0.154,0.282-0.232,0.387-0.232c0.154,0,0.232,0.052,0.232,0.156
			C89.585,57.639,89.507,57.793,89.353,57.949L89.353,57.949z M104.144,59.498c-0.929,1.187-1.987,2.322-3.175,3.408
			c-1.189,1.083-2.439,2.064-3.756,2.941c-1.316,0.88-2.659,1.602-4.027,2.169c-1.368,0.567-2.698,0.929-3.989,1.084
			c-0.207,0-0.387,0.012-0.542,0.039c-0.156,0.025-0.311,0.039-0.465,0.039c-2.427,0-3.64-1.083-3.64-3.253c0-0.258,0-0.529,0-0.812
			c0-0.284,0.051-0.582,0.155-0.891c0.206-1.083,0.594-2.207,1.162-3.368c0.568-1.162,1.227-2.258,1.975-3.292
			c0.748-1.032,1.588-1.987,2.517-2.865c0.929-0.877,1.884-1.6,2.865-2.168c1.24-0.67,2.349-1.007,3.331-1.007
			c0.567,0,1.109,0.13,1.625,0.387c0.465,0.259,0.697,0.595,0.697,1.008c0,0.259-0.051,0.465-0.155,0.619
			c-0.465,0.724-1.059,1.316-1.781,1.781c-0.724,0.464-1.523,0.904-2.4,1.316c-0.775,0.363-1.602,0.672-2.479,0.93
			c-0.88,0.259-1.757,0.492-2.634,0.697c-0.672,1.24-1.162,2.505-1.471,3.794c-0.207,0.828-0.31,1.679-0.31,2.556
			c0,2.118,0.955,3.175,2.865,3.175c0.722,0,1.419-0.104,2.091-0.31c0.981-0.258,1.975-0.659,2.982-1.2
			c1.006-0.542,1.986-1.188,2.943-1.937c0.955-0.747,1.871-1.561,2.75-2.439c0.877-0.877,1.676-1.781,2.4-2.711
			c0.051-0.154,0.18-0.232,0.387-0.232c0.155,0,0.232,0.078,0.232,0.232C104.298,59.292,104.246,59.394,104.144,59.498
			L104.144,59.498z M91.481,57.251c0.594-0.206,1.148-0.414,1.666-0.621c0.723-0.309,1.329-0.708,1.82-1.199
			c0.489-0.49,0.812-1.046,0.967-1.666c0-0.102,0.012-0.167,0.039-0.193c0.025-0.026,0.039-0.09,0.039-0.193
			c0-0.516-0.232-0.826-0.697-0.93c-0.053,0-0.09-0.012-0.116-0.039c-0.027-0.025-0.066-0.039-0.117-0.039
			c-0.568,0-1.213,0.311-1.936,0.93c-1.292,1.136-2.427,2.608-3.408,4.415C90.306,57.613,90.888,57.458,91.481,57.251L91.481,57.251
			z"/>
	</defs>
	<use xlink:href="#SVGID_1_"  overflow="visible" fill="#D87F27"/>
	<clipPath id="SVGID_2_">
		<use xlink:href="#SVGID_1_"  overflow="visible"/>
	</clipPath>
</g>
<g>
	<defs>
		<path id="SVGID_3_" d="M130.806,94.945c-1.24,1.704-2.764,3.447-4.569,5.229c-1.808,1.781-3.744,3.266-5.808,4.452
			c-1.136,0.671-2.156,1.149-3.059,1.434c-0.904,0.282-1.692,0.426-2.362,0.426c-1.601,0-2.401-0.75-2.401-2.246
			c0-1.135,0.542-2.634,1.626-4.492c0.722-1.187,1.471-2.528,2.246-4.026c0.774-1.497,1.367-2.84,1.781-4.028V91.46
			c0-0.155-0.052-0.232-0.155-0.232c-0.155,0-0.259,0.027-0.31,0.078c-1.137,0.724-2.362,1.653-3.678,2.788
			c-1.317,1.136-2.467,2.273-3.447,3.407c-0.826,1.344-1.614,2.711-2.361,4.104c-0.75,1.395-1.615,2.738-2.595,4.027
			c-0.259,0.258-0.438,0.388-0.542,0.388c-0.154,0-0.309-0.182-0.465-0.543c-0.309-0.464-0.464-0.929-0.464-1.394
			c0-0.412,0.128-0.825,0.388-1.239c0.567-1.033,1.212-2.052,1.936-3.059c0.722-1.008,1.419-2.053,2.091-3.137
			c0.774-1.341,1.484-2.722,2.129-4.144c0.645-1.418,1.329-2.749,2.053-3.988c0.155-0.258,0.36-0.386,0.62-0.386
			c0.258,0,0.49,0.103,0.697,0.309c0.36,0.363,0.542,0.62,0.542,0.776c0,0.207-0.078,0.413-0.232,0.619
			c-0.414,0.723-0.852,1.576-1.316,2.555c-0.465,0.981-0.929,1.988-1.394,3.02c1.549-1.394,3.109-2.709,4.685-3.95
			c1.575-1.239,3.24-2.401,4.996-3.485c0.206-0.102,0.36-0.154,0.465-0.154c0.206,0,0.438,0.13,0.697,0.387
			c0.155,0.156,0.232,0.31,0.232,0.465c0,0.207-0.13,0.517-0.388,0.93c-0.569,0.878-1.161,1.833-1.781,2.866
			c-0.62,1.033-1.228,2.079-1.821,3.136c-0.593,1.058-1.123,2.104-1.587,3.137c-0.465,1.033-0.852,1.936-1.161,2.71
			c-0.104,0.259-0.181,0.504-0.232,0.736c-0.052,0.232-0.078,0.477-0.078,0.735c0,1.292,0.619,1.936,1.859,1.936
			c0.67,0,1.394-0.205,2.167-0.619c1.033-0.516,2.053-1.162,3.06-1.937c1.008-0.774,1.975-1.599,2.905-2.478
			c0.929-0.877,1.793-1.768,2.594-2.672c0.8-0.903,1.484-1.794,2.052-2.672c0.052-0.103,0.156-0.155,0.311-0.155
			s0.232,0.078,0.232,0.232C130.961,94.61,130.909,94.739,130.806,94.945L130.806,94.945z M145.675,85.652
			c-0.569,1.084-1.277,2.389-2.13,3.911c-0.852,1.523-1.742,3.125-2.672,4.802c-0.93,1.678-1.885,3.368-2.866,5.072
			c-0.98,1.705-1.911,3.305-2.788,4.802c-0.568,1.031-1.407,2.465-2.517,4.298c-1.111,1.833-2.298,3.808-3.562,5.925
			c-1.266,2.116-2.543,4.26-3.833,6.427c-1.292,2.169-2.401,4.053-3.331,5.654c-1.548,2.685-3.162,5.188-4.839,7.512
			c-1.677,2.324-3.498,4.35-5.46,6.079c-1.962,1.729-4.117,3.099-6.466,4.104c-2.349,1.008-5.021,1.511-8.016,1.511
			c-1.807,0-3.613-0.182-5.421-0.542c-2.633-0.517-4.904-1.587-6.814-3.213c-1.911-1.627-3.149-3.499-3.718-5.615
			c-0.258-1.136-0.387-2.066-0.387-2.789c0-0.619,0.051-1.188,0.154-1.703c0.104-0.517,0.232-0.98,0.387-1.394
			c0.105-0.259,0.233-0.387,0.387-0.387c0.104,0,0.156,0.076,0.156,0.23v0.232c-0.104,0.362-0.206,0.787-0.31,1.279
			c-0.104,0.489-0.155,1.019-0.155,1.587c0,0.93,0.155,1.884,0.465,2.865c0.62,1.962,1.833,3.652,3.64,5.072
			s3.847,2.311,6.117,2.672c1.084,0.155,2.168,0.232,3.253,0.232c2.84,0,5.499-0.517,7.978-1.549c2.477-1.033,4.775-2.4,6.892-4.104
			s4.079-3.627,5.885-5.77c1.808-2.143,3.459-4.35,4.957-6.622c1.188-1.807,2.298-3.614,3.33-5.42
			c1.032-1.808,2.065-3.641,3.098-5.499c1.032-1.858,2.038-3.744,3.021-5.653c0.979-1.91,1.987-3.872,3.02-5.886
			c0.67-1.29,1.303-2.517,1.897-3.679c0.593-1.161,1.225-2.335,1.897-3.523c-0.826,1.033-1.742,2.195-2.749,3.485
			c-1.007,1.291-2.104,2.53-3.292,3.717c-1.343,1.342-2.504,2.014-3.485,2.014c-0.465,0-0.852-0.155-1.161-0.465
			c-0.31-0.31-0.464-0.8-0.464-1.472c0-0.619,0.154-1.367,0.464-2.246c0.413-1.239,0.993-2.503,1.742-3.794
			c0.748-1.29,1.6-2.516,2.556-3.678c0.955-1.162,1.987-2.233,3.098-3.214c1.109-0.98,2.232-1.754,3.369-2.322
			c1.238-0.621,2.477-0.93,3.717-0.93c0.36,0,0.645,0.026,0.852,0.077c0.413-0.722,0.838-1.445,1.277-2.167s0.891-1.498,1.356-2.325
			c0.309-0.67,0.645-1.006,1.006-1.006c0.258,0,0.465,0.259,0.619,0.774c0.155,0.57,0.232,0.982,0.232,1.24
			C146.062,84.722,145.934,85.187,145.675,85.652L145.675,85.652z M140.603,88.789c-0.129-0.025-0.271-0.038-0.426-0.038
			c-0.723,0-1.432,0.09-2.129,0.271c-0.697,0.182-1.252,0.427-1.665,0.735c-1.808,1.498-3.331,3.407-4.569,5.731
			c-1.239,2.323-2.143,4.646-2.712,6.97c-0.103,0.415-0.154,0.672-0.154,0.775c0,0.414,0.129,0.619,0.387,0.619
			c0.311,0,0.776-0.334,1.395-1.006c1.084-1.135,2.063-2.258,2.942-3.37c0.877-1.109,1.729-2.219,2.557-3.329
			c0.825-1.109,1.612-2.271,2.362-3.485c0.747-1.213,1.535-2.491,2.362-3.834C140.847,88.827,140.731,88.816,140.603,88.789
			L140.603,88.789z M164.958,96.107c-0.928,1.188-1.986,2.323-3.174,3.407c-1.188,1.084-2.44,2.065-3.757,2.943
			c-1.316,0.879-2.659,1.601-4.027,2.168c-1.368,0.568-2.698,0.93-3.988,1.084c-0.207,0-0.387,0.012-0.542,0.039
			c-0.154,0.026-0.31,0.039-0.465,0.039c-2.428,0-3.64-1.084-3.64-3.253c0-0.258,0-0.528,0-0.812c0-0.284,0.051-0.581,0.155-0.891
			c0.205-1.084,0.593-2.207,1.162-3.368c0.566-1.162,1.225-2.259,1.975-3.292c0.747-1.031,1.587-1.987,2.517-2.866
			c0.93-0.877,1.884-1.6,2.865-2.168c1.239-0.67,2.349-1.006,3.329-1.006c0.569,0,1.11,0.128,1.628,0.386
			c0.465,0.259,0.697,0.594,0.697,1.007c0,0.259-0.053,0.465-0.156,0.619c-0.464,0.724-1.059,1.317-1.78,1.782
			c-0.724,0.465-1.523,0.904-2.4,1.316c-0.775,0.362-1.602,0.672-2.479,0.93c-0.879,0.259-1.756,0.491-2.634,0.698
			c-0.672,1.238-1.161,2.504-1.472,3.794c-0.206,0.826-0.309,1.678-0.309,2.556c0,2.118,0.954,3.175,2.864,3.175
			c0.723,0,1.42-0.103,2.092-0.31c0.979-0.258,1.976-0.658,2.981-1.201c1.006-0.542,1.987-1.186,2.942-1.936
			c0.955-0.747,1.871-1.56,2.75-2.439c0.878-0.877,1.677-1.781,2.399-2.711c0.052-0.155,0.182-0.232,0.389-0.232
			c0.154,0,0.232,0.078,0.232,0.232C165.114,95.901,165.062,96.004,164.958,96.107L164.958,96.107z M152.296,93.861
			c0.593-0.206,1.148-0.413,1.665-0.62c0.723-0.31,1.328-0.709,1.819-1.2c0.49-0.49,0.813-1.046,0.968-1.666
			c0-0.102,0.013-0.166,0.039-0.193c0.025-0.025,0.039-0.089,0.039-0.194c0-0.516-0.232-0.825-0.697-0.93
			c-0.053,0-0.09-0.012-0.116-0.038c-0.025-0.025-0.065-0.038-0.116-0.038c-0.568,0-1.213,0.309-1.936,0.928
			c-1.291,1.137-2.428,2.608-3.407,4.415C151.122,94.224,151.703,94.068,152.296,93.861L152.296,93.861z M197.793,55.914
			c-0.259,0.928-0.657,2.026-1.2,3.29c-0.542,1.267-1.253,2.621-2.13,4.067c-2.633,4.286-5.563,8.197-8.789,11.732
			c-3.228,3.538-6.776,6.623-10.649,9.256c-0.568,0.414-1.136,0.762-1.703,1.045c-0.569,0.284-1.111,0.58-1.628,0.891
			c-1.084,1.807-2.116,3.601-3.097,5.382c-0.981,1.782-1.858,3.499-2.633,5.15c-1.084,2.323-1.627,4.182-1.627,5.576
			c0,1.653,0.748,2.479,2.246,2.479c1.343,0,3.099-0.593,5.267-1.781c1.651-0.877,3.303-2.116,4.957-3.717
			c1.651-1.6,3.045-3.148,4.181-4.646c0.205-0.206,0.336-0.311,0.389-0.311c0.154,0,0.23,0.078,0.23,0.232
			c0,0.104-0.076,0.232-0.23,0.387c-1.292,1.602-2.739,3.175-4.337,4.724c-1.602,1.549-3.28,2.84-5.034,3.873
			c-2.737,1.6-5.087,2.4-7.048,2.4c-1.188,0-2.105-0.297-2.75-0.891c-0.646-0.593-0.967-1.458-0.967-2.594
			c0-1.394,0.515-3.045,1.548-4.957c1.29-2.374,2.582-4.594,3.873-6.66c1.29-2.064,2.684-4.388,4.182-6.97
			c1.755-3.046,3.472-6.027,5.149-8.944s3.498-5.82,5.46-8.713c0.877-1.342,1.782-2.606,2.712-3.794
			c0.928-1.188,2.116-2.375,3.561-3.563c1.032-0.877,2.259-1.782,3.68-2.71c1.42-0.93,2.748-1.653,3.988-2.168
			c0.36-0.156,0.722-0.232,1.084-0.232c0.413,0,0.747,0.115,1.007,0.348c0.258,0.232,0.387,0.581,0.387,1.045
			C197.871,55.449,197.844,55.708,197.793,55.914L197.793,55.914z M193.379,55.914c-0.518,0-1.084,0.309-1.704,0.928
			c-1.756,1.756-3.357,3.667-4.802,5.731c-0.724,1.033-1.471,2.156-2.246,3.368c-0.774,1.215-1.6,2.518-2.478,3.911
			c-1.498,2.479-2.994,4.815-4.491,7.009c-1.498,2.195-2.918,4.376-4.261,6.544c-0.207,0.309-0.387,0.607-0.541,0.89
			c-0.155,0.285-0.338,0.582-0.543,0.891c0.414-0.258,0.84-0.528,1.279-0.813c0.438-0.283,0.863-0.553,1.277-0.812
			c3.509-2.529,6.646-5.279,9.409-8.249c2.761-2.968,5.278-6.595,7.551-10.881c0.568-1.032,1.057-2.155,1.471-3.369
			c0.413-1.213,0.723-2.285,0.93-3.213c0.051-0.156,0.078-0.387,0.078-0.698C194.309,56.328,193.999,55.914,193.379,55.914
			L193.379,55.914z M195.47,95.1c-1.24,1.602-2.66,3.125-4.261,4.569c-1.6,1.447-3.072,2.608-4.413,3.485
			c-1.034,0.671-2.092,1.189-3.176,1.549c-1.085,0.36-2.065,0.542-2.943,0.542c-0.671,0-1.343-0.13-2.014-0.388
			c-0.929-0.36-1.394-1.109-1.394-2.246c0-0.775,0.283-1.807,0.852-3.098c0.723-1.549,1.6-3.226,2.634-5.034
			c1.032-1.806,1.986-3.355,2.865-4.646c0.516-0.775,1.213-1.239,2.091-1.395c0.051,0,0.089-0.012,0.116-0.039
			c0.025-0.024,0.064-0.038,0.116-0.038c0.36,0,0.542,0.154,0.542,0.463c0,0.259-0.078,0.492-0.232,0.697
			c-1.188,1.808-2.272,3.692-3.253,5.653c-0.98,1.963-1.756,3.925-2.323,5.886c-0.154,0.465-0.232,0.904-0.232,1.316
			c0,0.62,0.167,1.072,0.504,1.356c0.335,0.283,0.786,0.426,1.354,0.426c0.98,0,2.142-0.361,3.484-1.084
			c1.653-0.929,3.332-2.142,5.035-3.641c1.703-1.497,3.147-3.07,4.336-4.724c0.155-0.154,0.259-0.232,0.312-0.232
			c0.102,0,0.154,0.078,0.154,0.232C195.625,94.765,195.572,94.894,195.47,95.1L195.47,95.1z M189.352,80.309
			c-0.62,0-0.93-0.311-0.93-0.93c0-0.67,0.244-1.316,0.735-1.936c0.489-0.619,1.097-0.93,1.819-0.93
			c0.671,0,1.008,0.338,1.008,1.008c0,0.619-0.271,1.239-0.814,1.857C190.629,79.998,190.022,80.309,189.352,80.309L189.352,80.309z
			"/>
	</defs>
	<use xlink:href="#SVGID_3_"  overflow="visible" fill="#D87F27"/>
	<clipPath id="SVGID_4_">
		<use xlink:href="#SVGID_3_"  overflow="visible"/>
	</clipPath>
</g>
<path fill="#D87F27" d="M79.027,6.331c-0.407-1.529-1.019-3.586-3.201-4.83c-4.225-2.405-9.675-2.059-10.091,2.053
	c-0.061,0.604,0.938,5.398,4.746,3.909c3.344-1.308,0.698-5.624-0.709-4.919c-1.408,0.704,3.019-4.162,6.759,3.182
	c4.811,9.445-11.312,26.135-19.479,34.204c-2.678,2.646-15.201,19.752-16.135,21.746c0.301-1.792,1.192-15.954-0.864-29.139
	C38.16,19.63,30.063,12.12,30.063,12.12s3.3,5.527,4.106,7.51c0.7,1.721,2.464,8.331,2.464,8.331S26.366,3.496,7.709,7.661
	c-9.377,2.094-9.04,11.387-5.104,11.382c3.613-0.004,3.598-6.261,0.704-5.573c-2.894,0.688,3.367-5.844,9.27-3.461
	c5.482,2.212,17.713,7.583,22.06,28.865c2.461,12.05,2.464,22.823,2.464,22.823s-2.285-10.905-3.375-14.989
	c-1.687-6.322-5.896-12.528-5.896-12.528s4.734,10.264,5.488,16.705c0.137,1.172,0.44,3.257,0.643,5.384
	c0.651,6.844,1.379,16.046,1.379,16.046s39.029-44.06,42.594-53.213C79.56,14.937,80.248,10.918,79.027,6.331z M34.815,32.596
	c-1.643-4.107-3.333-7.702-5.339-10.561c-0.415-0.591-3.286-4.224-5.31-5.75c-3.741-3.057-10.59-6.571-13.465-7.011
	c0.499-0.059,0.923-0.052,1.232,0c2.259,0.381,5.22,1.115,10.385,4.254c3.236,1.967,6.301,4.75,8.449,7.745
	c5.184,7.23,6.219,17.014,6.219,17.014S36.419,36.606,34.815,32.596z"/>
<path fill="#D87F27" d="M161.424,37.876c0,0-6.454-3.503-13.729-3.461c-8.461,0.049-17.542,3.109-24.231,8.742
	c0,0-7.368,6.668-13.259,14.433c-7.443,9.808-14.924,21.623-16.017,23.233c-0.321,0.474-0.968,0.837-1.721,1.119
	c-6.553-0.842-16.212-1.461-31.004-1.461c-17.963,0-41.482,14.678-40.954,26.822c0.405,9.319,4.332,14.354,11.724,14.354
	c5.544,0,6.336-5.28,6.336-5.28c0-1.849-0.792-5.984-4.928-5.984c-4.752,0-4.4,5.984-4.4,5.984c-4.84-0.088-6.42-1.233-6.42-9.946
	c0-12.606,23.063-23.696,37.635-23.863c7.656-0.088,14.495-0.379,20.884,0.015c2.394,0.147,4.642,0.325,6.736,0.522
	c-0.083,1.667-0.776,10.282-6.299,15.142c-13.164,11.583-19.678,4.577-19.678,4.577s4.294,1.358,5.337-1.408
	c0.528-1.408-1.591-2.718-3.521-2.731c-4.928-0.028-4.928,7.836,2.204,8.54c3.507,0.345,13.931,0.142,24.142-13.553
	c2.645-3.547,4.772-6.669,6.583-9.493c1.166,0.185,2.214,0.373,3.134,0.562c0.079,1.363-0.801,18.789-0.801,18.789
	s-0.235,2.464,1.04,2.464c2.3,0,1.343-3.671,1.336-3.872c0,0,0.197-9.363,0.675-12.379c0.24-1.512,0.458-2.939,0.656-4.283
	c0.001,0,0.001,0,0.001,0c5.649,1.789,5.725,1.041,28.619,7.333v-1.056c0,0-21.283-5.299-28.424-7.607h0
	c1.208-8.335,1.614-12.981,1.614-12.981c1.798-3.133,3.619-6.217,5.983-9.685c7.041-10.321,18.07-25.815,36.845-25.287
	c13.653,0.384,14.314,5.691,16.562,4.199C165.315,39.554,161.424,37.876,161.424,37.876z M97.729,82.779
	c1.366-2.18,2.553-4.185,3.654-6.07c0,0,0.061,1.945-0.051,2.617c-0.191,1.149-0.582,2.585-0.979,4.03
	C99.569,83.161,98.698,82.969,97.729,82.779z"/>
</svg>
